<svg width="22" height="21" viewBox="0 0 22 21" fill="none" xmlns="http://www.w3.org/2000/svg">
<path d="M11.1499 5.34485C8.25379 5.34485 5.91781 7.64433 5.91781 10.4952C5.91781 13.346 8.25379 15.6454 11.1499 15.6454C14.0459 15.6454 16.3819 13.346 16.3819 10.4952C16.3819 7.64433 14.0459 5.34485 11.1499 5.34485ZM11.1499 13.8435C9.27834 13.8435 7.74834 12.3419 7.74834 10.4952C7.74834 8.64839 9.27378 7.14678 11.1499 7.14678C13.0259 7.14678 14.5514 8.64839 14.5514 10.4952C14.5514 12.3419 13.0214 13.8435 11.1499 13.8435ZM17.8163 5.13418C17.8163 5.80206 17.2699 6.33547 16.5959 6.33547C15.9174 6.33547 15.3756 5.79758 15.3756 5.13418C15.3756 4.47078 15.922 3.93289 16.5959 3.93289C17.2699 3.93289 17.8163 4.47078 17.8163 5.13418ZM21.2815 6.3534C21.2041 4.74421 20.8307 3.3188 19.6332 2.14441C18.4401 0.970012 16.9921 0.602454 15.3574 0.52177C13.6725 0.427639 8.62262 0.427639 6.9378 0.52177C5.30763 0.597971 3.85959 0.965529 2.662 2.13992C1.46442 3.31432 1.09558 4.73973 1.01361 6.34891C0.917988 8.00741 0.917988 12.9784 1.01361 14.6369C1.09102 16.2461 1.46442 17.6715 2.662 18.8459C3.85959 20.0203 5.30307 20.3878 6.9378 20.4685C8.62262 20.5627 13.6725 20.5627 15.3574 20.4685C16.9921 20.3923 18.4401 20.0248 19.6332 18.8459C20.8262 17.6715 21.1996 16.2461 21.2815 14.6369C21.3772 12.9784 21.3772 8.01189 21.2815 6.3534ZM19.1049 16.4164C18.7498 17.295 18.0622 17.9718 17.1651 18.3259C15.8218 18.8504 12.6343 18.7294 11.1499 18.7294C9.66539 18.7294 6.47334 18.8459 5.13459 18.3259C4.24209 17.9763 3.5545 17.2995 3.19477 16.4164C2.662 15.0941 2.78495 11.9564 2.78495 10.4952C2.78495 9.03388 2.66656 5.89171 3.19477 4.57388C3.54995 3.69532 4.23754 3.01848 5.13459 2.66437C6.47789 2.13992 9.66539 2.26095 11.1499 2.26095C12.6343 2.26095 15.8264 2.14441 17.1651 2.66437C18.0576 3.01399 18.7452 3.69084 19.1049 4.57388C19.6377 5.89619 19.5148 9.03388 19.5148 10.4952C19.5148 11.9564 19.6377 15.0986 19.1049 16.4164Z" fill="black"/>
</svg>
